<svg width="100" height="24" viewBox="0 0 100 24" fill="none" xmlns="http://www.w3.org/2000/svg">
<rect width="24" height="24" rx="5" fill="#32D76A"/>
<path d="M10.3864 9.22727L6.95739 18.5H5.50852L2.07955 9.22727H3.625L6.18466 16.6165H6.28125L8.84091 9.22727H10.3864ZM12.46 18.5V6.13636H16.6376C17.6035 6.13636 18.3964 6.30137 19.0162 6.63139C19.6359 6.95739 20.0948 7.40613 20.3926 7.97763C20.6904 8.54912 20.8393 9.1991 20.8393 9.92756C20.8393 10.656 20.6904 11.302 20.3926 11.8654C20.0948 12.4289 19.638 12.8716 19.0222 13.1935C18.4064 13.5115 17.6196 13.6705 16.6618 13.6705H13.2811V12.3182H16.6135C17.2735 12.3182 17.8047 12.2216 18.2072 12.0284C18.6137 11.8352 18.9075 11.5616 19.0886 11.2074C19.2737 10.8492 19.3663 10.4226 19.3663 9.92756C19.3663 9.43253 19.2737 8.99988 19.0886 8.62962C18.9035 8.25935 18.6077 7.9736 18.2012 7.77237C17.7947 7.56712 17.2574 7.46449 16.5893 7.46449H13.9572V18.5H12.46ZM18.2797 12.946L21.3223 18.5H19.5836L16.5893 12.946H18.2797Z" fill="white"/>
<path d="M42.8864 9.72727L39.4574 19H38.0085L34.5795 9.72727H36.125L38.6847 17.1165H38.7812L41.3409 9.72727H42.8864ZM44.96 19V6.63636H49.1376C50.1035 6.63636 50.8964 6.80137 51.5162 7.13139C52.1359 7.45739 52.5948 7.90613 52.8926 8.47763C53.1904 9.04912 53.3393 9.6991 53.3393 10.4276C53.3393 11.156 53.1904 11.802 52.8926 12.3654C52.5948 12.9289 52.138 13.3716 51.5222 13.6935C50.9064 14.0115 50.1196 14.1705 49.1618 14.1705H45.7811V12.8182H49.1135C49.7735 12.8182 50.3047 12.7216 50.7072 12.5284C51.1137 12.3352 51.4075 12.0616 51.5886 11.7074C51.7737 11.3492 51.8663 10.9226 51.8663 10.4276C51.8663 9.93253 51.7737 9.49988 51.5886 9.12962C51.4035 8.75935 51.1077 8.4736 50.7012 8.27237C50.2947 8.06712 49.7574 7.96449 49.0893 7.96449H46.4572V19H44.96ZM50.7797 13.446L53.8223 19H52.0836L49.0893 13.446H50.7797ZM59.4291 19.1932C58.5356 19.1932 57.7649 18.996 57.1169 18.6016C56.473 18.2031 55.9759 17.6477 55.6258 16.9354C55.2797 16.219 55.1066 15.3859 55.1066 14.4361C55.1066 13.4863 55.2797 12.6491 55.6258 11.9247C55.9759 11.1963 56.4629 10.6288 57.0867 10.2223C57.7146 9.81179 58.4471 9.60653 59.2842 9.60653C59.7671 9.60653 60.2441 9.68703 60.7149 9.84801C61.1858 10.009 61.6144 10.2706 62.0008 10.6328C62.3872 10.991 62.695 11.4659 62.9245 12.0575C63.1539 12.6491 63.2686 13.3776 63.2686 14.2429V14.8466H56.1208V13.6151H61.8197C61.8197 13.0919 61.7151 12.625 61.5058 12.2145C61.3005 11.804 61.0067 11.48 60.6244 11.2425C60.2461 11.0051 59.7993 10.8864 59.2842 10.8864C58.7167 10.8864 58.2257 11.0272 57.8112 11.3089C57.4007 11.5866 57.0847 11.9489 56.8634 12.3956C56.642 12.8423 56.5313 13.3213 56.5313 13.8324V14.6534C56.5313 15.3537 56.6521 15.9473 56.8936 16.4343C57.1391 16.9173 57.4791 17.2855 57.9138 17.5391C58.3485 17.7886 58.8535 17.9134 59.4291 17.9134C59.8034 17.9134 60.1414 17.861 60.4433 17.7564C60.7491 17.6477 61.0128 17.4867 61.2341 17.2734C61.4555 17.0561 61.6265 16.7865 61.7472 16.4645L63.1237 16.8509C62.9788 17.3177 62.7353 17.7282 62.3932 18.0824C62.0511 18.4325 61.6285 18.7062 61.1254 18.9034C60.6224 19.0966 60.0569 19.1932 59.4291 19.1932ZM68.1645 19.2173C67.5769 19.2173 67.0436 19.1067 66.5647 18.8853C66.0858 18.6599 65.7055 18.3359 65.4237 17.9134C65.142 17.4867 65.0012 16.9716 65.0012 16.3679C65.0012 15.8366 65.1058 15.406 65.3151 15.076C65.5244 14.742 65.8041 14.4804 66.1542 14.2912C66.5044 14.102 66.8907 13.9612 67.3133 13.8686C67.7399 13.772 68.1685 13.6955 68.5992 13.6392C69.1626 13.5668 69.6194 13.5124 69.9695 13.4762C70.3237 13.436 70.5813 13.3696 70.7423 13.277C70.9073 13.1844 70.9898 13.0234 70.9898 12.794V12.7457C70.9898 12.1501 70.8268 11.6873 70.5008 11.3572C70.1788 11.0272 69.6898 10.8622 69.0338 10.8622C68.3537 10.8622 67.8204 11.0111 67.434 11.3089C67.0477 11.6068 66.776 11.9247 66.6191 12.2628L65.2668 11.7798C65.5083 11.2164 65.8302 10.7777 66.2327 10.4638C66.6392 10.1458 67.0819 9.92448 67.5608 9.79972C68.0438 9.67093 68.5187 9.60653 68.9855 9.60653C69.2834 9.60653 69.6254 9.64276 70.0118 9.7152C70.4022 9.78362 70.7785 9.92649 71.1407 10.1438C71.507 10.3612 71.8108 10.6892 72.0523 11.1278C72.2938 11.5665 72.4145 12.1541 72.4145 12.8906V19H70.9898V17.7443H70.9173C70.8208 17.9455 70.6598 18.1609 70.4344 18.3903C70.209 18.6197 69.9092 18.8149 69.5349 18.9759C69.1606 19.1368 68.7038 19.2173 68.1645 19.2173ZM68.3818 17.9375C68.9453 17.9375 69.4202 17.8268 69.8066 17.6055C70.1969 17.3841 70.4907 17.0984 70.6879 16.7482C70.8892 16.3981 70.9898 16.0298 70.9898 15.6435V14.3395C70.9294 14.4119 70.7966 14.4783 70.5914 14.5387C70.3901 14.5951 70.1567 14.6454 69.8911 14.6896C69.6295 14.7299 69.3739 14.7661 69.1244 14.7983C68.8789 14.8265 68.6797 14.8506 68.5267 14.8707C68.1565 14.919 67.8103 14.9975 67.4884 15.1062C67.1704 15.2108 66.9128 15.3698 66.7156 15.5831C66.5225 15.7924 66.4259 16.0781 66.4259 16.4403C66.4259 16.9354 66.609 17.3097 66.9752 17.5632C67.3455 17.8127 67.8144 17.9375 68.3818 17.9375ZM78.782 19.1932C77.9126 19.1932 77.1641 18.9879 76.5362 18.5774C75.9084 18.1669 75.4254 17.6014 75.0874 16.881C74.7493 16.1606 74.5803 15.3376 74.5803 14.4119C74.5803 13.4702 74.7533 12.6391 75.0994 11.9187C75.4496 11.1942 75.9366 10.6288 76.5604 10.2223C77.1882 9.81179 77.9207 9.60653 78.7578 9.60653C79.4098 9.60653 79.9974 9.72727 80.5206 9.96875C81.0438 10.2102 81.4724 10.5483 81.8065 10.983C82.1405 11.4176 82.3478 11.9247 82.4283 12.5043H81.0036C80.8949 12.0817 80.6534 11.7074 80.2791 11.3814C79.9089 11.0514 79.4098 10.8864 78.782 10.8864C78.2266 10.8864 77.7396 11.0312 77.321 11.321C76.9065 11.6068 76.5825 12.0112 76.3491 12.5344C76.1197 13.0536 76.005 13.6634 76.005 14.3636C76.005 15.08 76.1177 15.7038 76.343 16.2351C76.5724 16.7663 76.8944 17.1789 77.3089 17.4727C77.7275 17.7665 78.2185 17.9134 78.782 17.9134C79.1522 17.9134 79.4883 17.849 79.7901 17.7202C80.092 17.5914 80.3475 17.4062 80.5568 17.1648C80.7661 16.9233 80.915 16.6335 81.0036 16.2955H82.4283C82.3478 16.8428 82.1486 17.3358 81.8306 17.7745C81.5167 18.2092 81.1001 18.5553 80.581 18.8129C80.0658 19.0664 79.4661 19.1932 78.782 19.1932ZM88.5437 9.72727V10.9347H83.7383V9.72727H88.5437ZM85.1388 7.50568H86.5636V16.3438C86.5636 16.7462 86.6219 17.0481 86.7386 17.2493C86.8594 17.4465 87.0123 17.5793 87.1974 17.6477C87.3866 17.7121 87.5858 17.7443 87.7951 17.7443C87.9521 17.7443 88.0808 17.7363 88.1815 17.7202C88.2821 17.7 88.3626 17.6839 88.4229 17.6719L88.7127 18.9517C88.6161 18.9879 88.4813 19.0241 88.3082 19.0604C88.1352 19.1006 87.9158 19.1207 87.6502 19.1207C87.2478 19.1207 86.8533 19.0342 86.467 18.8612C86.0846 18.6881 85.7667 18.4245 85.5131 18.0703C85.2636 17.7161 85.1388 17.2694 85.1388 16.7301V7.50568ZM94.475 19.1932C93.5815 19.1932 92.8108 18.996 92.1628 18.6016C91.5189 18.2031 91.0218 17.6477 90.6717 16.9354C90.3256 16.219 90.1525 15.3859 90.1525 14.4361C90.1525 13.4863 90.3256 12.6491 90.6717 11.9247C91.0218 11.1963 91.5088 10.6288 92.1326 10.2223C92.7605 9.81179 93.493 9.60653 94.3301 9.60653C94.813 9.60653 95.29 9.68703 95.7608 9.84801C96.2317 10.009 96.6603 10.2706 97.0467 10.6328C97.4331 10.991 97.7409 11.4659 97.9703 12.0575C98.1998 12.6491 98.3145 13.3776 98.3145 14.2429V14.8466H91.1667V13.6151H96.8656C96.8656 13.0919 96.7609 12.625 96.5517 12.2145C96.3464 11.804 96.0526 11.48 95.6703 11.2425C95.292 11.0051 94.8452 10.8864 94.3301 10.8864C93.7626 10.8864 93.2716 11.0272 92.8571 11.3089C92.4466 11.5866 92.1306 11.9489 91.9093 12.3956C91.6879 12.8423 91.5772 13.3213 91.5772 13.8324V14.6534C91.5772 15.3537 91.698 15.9473 91.9395 16.4343C92.185 16.9173 92.525 17.2855 92.9597 17.5391C93.3944 17.7886 93.8994 17.9134 94.475 17.9134C94.8493 17.9134 95.1873 17.861 95.4892 17.7564C95.795 17.6477 96.0587 17.4867 96.28 17.2734C96.5014 17.0561 96.6724 16.7865 96.7931 16.4645L98.1696 16.8509C98.0247 17.3177 97.7812 17.7282 97.4391 18.0824C97.097 18.4325 96.6744 18.7062 96.1713 18.9034C95.6683 19.0966 95.1028 19.1932 94.475 19.1932Z" fill="#E1E3E6"/>
</svg>
