<svg width="25" height="20" viewBox="0 0 25 20" fill="none" xmlns="http://www.w3.org/2000/svg">
<path d="M7.5 10C9.91797 10 11.875 8.04297 11.875 5.625C11.875 3.20703 9.91797 1.25 7.5 1.25C5.08203 1.25 3.125 3.20703 3.125 5.625C3.125 8.04297 5.08203 10 7.5 10ZM10.5 11.25H10.1758C9.36328 11.6406 8.46094 11.875 7.5 11.875C6.53906 11.875 5.64062 11.6406 4.82422 11.25H4.5C2.01562 11.25 0 13.2656 0 15.75V16.875C0 17.9102 0.839844 18.75 1.875 18.75H13.125C14.1602 18.75 15 17.9102 15 16.875V15.75C15 13.2656 12.9844 11.25 10.5 11.25ZM18.75 10C20.8203 10 22.5 8.32031 22.5 6.25C22.5 4.17969 20.8203 2.5 18.75 2.5C16.6797 2.5 15 4.17969 15 6.25C15 8.32031 16.6797 10 18.75 10ZM20.625 11.25H20.4766C19.9336 11.4375 19.3594 11.5625 18.75 11.5625C18.1406 11.5625 17.5664 11.4375 17.0234 11.25H16.875C16.0781 11.25 15.3437 11.4805 14.6992 11.8516C15.6523 12.8789 16.25 14.2422 16.25 15.75V17.25C16.25 17.3359 16.2305 17.418 16.2266 17.5H23.125C24.1602 17.5 25 16.6602 25 15.625C25 13.207 23.043 11.25 20.625 11.25V11.25Z" fill="#DBDBDB"/>
</svg>
