<svg width="20" height="20" viewBox="0 0 20 20" fill="none" xmlns="http://www.w3.org/2000/svg">
<path d="M9.99999 1.66666C5.40499 1.66666 1.66666 4.65749 1.66666 8.33332C1.66666 10.7567 3.24832 12.93 5.83332 14.1117V18.3333L10.2833 14.9958C14.7475 14.8767 18.3333 11.9333 18.3333 8.33332C18.3333 4.65749 14.595 1.66666 9.99999 1.66666ZM9.99999 13.3333H9.72249L7.49999 15V12.9858L6.96582 12.78C4.72499 11.9175 3.33332 10.2133 3.33332 8.33332C3.33332 5.57582 6.32416 3.33332 9.99999 3.33332C13.6758 3.33332 16.6667 5.57582 16.6667 8.33332C16.6667 11.0908 13.6758 13.3333 9.99999 13.3333Z" fill="#DBDBDB"/>
</svg>
