<svg width="28" height="28" viewBox="0 0 28 28" fill="none" xmlns="http://www.w3.org/2000/svg">
<path d="M9.33325 21V6.66865C9.33319 6.11123 9.53268 5.5722 9.89562 5.14912C10.2586 4.72605 10.761 4.44688 11.3119 4.36215L21.8119 2.74632C22.1444 2.69518 22.4841 2.71656 22.8076 2.80898C23.1311 2.9014 23.4307 3.06267 23.686 3.28176C23.9414 3.50084 24.1463 3.77254 24.2868 4.07824C24.4272 4.38393 24.5 4.71639 24.4999 5.05282V18.6667" stroke="#DBDBDB" stroke-width="2" stroke-linecap="round" stroke-linejoin="round"/>
<path d="M9.33325 10.5L24.4999 8.16666" stroke="#DBDBDB" stroke-width="2"/>
<path d="M9.33325 21C9.33325 21.9282 8.9645 22.8185 8.30813 23.4749C7.65175 24.1312 6.76151 24.5 5.83325 24.5C4.90499 24.5 4.01476 24.1312 3.35838 23.4749C2.702 22.8185 2.33325 21.9282 2.33325 21C2.33325 19.0668 3.90009 18.6666 5.83325 18.6666C7.76642 18.6666 9.33325 19.0668 9.33325 21ZM24.4999 18.6666C24.4999 19.5949 24.1312 20.4851 23.4748 21.1415C22.8184 21.7979 21.9282 22.1666 20.9999 22.1666C20.0717 22.1666 19.1814 21.7979 18.525 21.1415C17.8687 20.4851 17.4999 19.5949 17.4999 18.6666C17.4999 16.7335 19.0668 16.3333 20.9999 16.3333C22.9331 16.3333 24.4999 16.7335 24.4999 18.6666Z" stroke="#DBDBDB" stroke-width="2" stroke-linecap="round" stroke-linejoin="round"/>
</svg>
