<svg width="20" height="20" viewBox="0 0 20 20" fill="none" xmlns="http://www.w3.org/2000/svg">
<path d="M6.66666 15V4.76332C6.66661 4.36516 6.8091 3.98014 7.06835 3.67795C7.32759 3.37575 7.68646 3.17634 8.07999 3.11582L15.58 1.96166C15.8175 1.92513 16.0601 1.9404 16.2912 2.00641C16.5222 2.07243 16.7363 2.18762 16.9187 2.34411C17.101 2.5006 17.2474 2.69467 17.3477 2.91303C17.4481 3.13138 17.5 3.36885 17.5 3.60916V13.3333" stroke="#DBDBDB" stroke-width="2" stroke-linecap="round" stroke-linejoin="round"/>
<path d="M6.66666 7.49998L17.5 5.83331" stroke="#DBDBDB" stroke-width="2"/>
<path d="M6.66666 15C6.66666 15.663 6.40326 16.2989 5.93442 16.7678C5.46558 17.2366 4.8297 17.5 4.16666 17.5C3.50362 17.5 2.86773 17.2366 2.39889 16.7678C1.93005 16.2989 1.66666 15.663 1.66666 15C1.66666 13.6192 2.78582 13.3333 4.16666 13.3333C5.54749 13.3333 6.66666 13.6192 6.66666 15ZM17.5 13.3333C17.5 13.9964 17.2366 14.6322 16.7678 15.1011C16.2989 15.5699 15.663 15.8333 15 15.8333C14.3369 15.8333 13.7011 15.5699 13.2322 15.1011C12.7634 14.6322 12.5 13.9964 12.5 13.3333C12.5 11.9525 13.6192 11.6667 15 11.6667C16.3808 11.6667 17.5 11.9525 17.5 13.3333Z" stroke="#DBDBDB" stroke-width="2" stroke-linecap="round" stroke-linejoin="round"/>
</svg>
