<svg width="20" height="20" viewBox="0 0 20 20" fill="none" xmlns="http://www.w3.org/2000/svg">
<path d="M14.2917 3C14.7668 2.99994 15.2242 3.18025 15.5715 3.50447C15.9187 3.8287 16.13 4.27268 16.1625 4.74667L16.1667 4.875V14.25C16.1665 14.3541 16.2053 14.4545 16.2754 14.5315C16.3456 14.6084 16.442 14.6563 16.5457 14.6657C16.6494 14.6751 16.7528 14.6454 16.8357 14.5823C16.9185 14.5193 16.9748 14.4275 16.9933 14.325L17 14.25V5.51167C17.435 5.5603 17.8392 5.75955 18.1427 6.0749C18.4461 6.39026 18.6298 6.80184 18.6617 7.23833L18.6667 7.375V13.625C18.6667 14.3168 18.402 14.9824 17.9269 15.4852C17.4518 15.988 16.8023 16.29 16.1117 16.3292L15.9583 16.3333H4.70833C4.01655 16.3334 3.35098 16.0687 2.84814 15.5936C2.34531 15.1185 2.04333 14.469 2.00417 13.7783L2 13.625V4.875C1.99994 4.39989 2.18025 3.94248 2.50447 3.59521C2.8287 3.24793 3.27268 3.03669 3.74667 3.00417L3.875 3H14.2917ZM8.04 8.83333H5.12333C4.95757 8.83333 4.7986 8.89918 4.68139 9.01639C4.56418 9.1336 4.49833 9.29257 4.49833 9.45833V12.375C4.49833 12.72 4.77833 13 5.12333 13H8.04C8.20576 13 8.36473 12.9342 8.48194 12.8169C8.59915 12.6997 8.665 12.5408 8.665 12.375V9.45833C8.665 9.29257 8.59915 9.1336 8.48194 9.01639C8.36473 8.89918 8.20576 8.83333 8.04 8.83333ZM13.0433 11.75H10.9617L10.8767 11.7558C10.7198 11.7774 10.577 11.8577 10.477 11.9806C10.3771 12.1034 10.3275 12.2596 10.3383 12.4176C10.3491 12.5756 10.4195 12.7236 10.5352 12.8317C10.6509 12.9398 10.8033 13 10.9617 13H13.0433L13.1283 12.9942C13.2852 12.9726 13.428 12.8923 13.528 12.7694C13.6279 12.6466 13.6775 12.4904 13.6667 12.3324C13.6559 12.1744 13.5855 12.0264 13.4698 11.9183C13.3541 11.8102 13.2017 11.75 13.0433 11.75V11.75ZM7.415 10.0833V11.75H5.74833V10.0833H7.415ZM13.0417 8.83333L10.96 8.8375L10.875 8.8425C10.7166 8.86255 10.5719 8.94246 10.4705 9.06583C10.3692 9.1892 10.3189 9.34668 10.33 9.50596C10.3411 9.66523 10.4127 9.81423 10.5302 9.92237C10.6476 10.0305 10.802 10.0896 10.9617 10.0875L13.0442 10.0833L13.1283 10.0775C13.2853 10.0559 13.4282 9.97552 13.5281 9.85259C13.628 9.72966 13.6776 9.57337 13.6667 9.41532C13.6558 9.25727 13.5852 9.10926 13.4694 9.00122C13.3535 8.89318 13.2009 8.83317 13.0425 8.83333H13.0417ZM13.0425 5.92H5.12333L5.03833 5.92583C4.88146 5.94742 4.73862 6.02775 4.63869 6.15058C4.53876 6.27342 4.48919 6.42961 4.49998 6.5876C4.51077 6.74558 4.58113 6.89358 4.69684 7.00169C4.81255 7.1098 4.96498 7.16995 5.12333 7.17H13.0433L13.1283 7.165C13.2866 7.14493 13.4311 7.06514 13.5324 6.94195C13.6337 6.81877 13.6841 6.66151 13.6732 6.5024C13.6624 6.34328 13.5911 6.19433 13.474 6.08606C13.3569 5.97779 13.2028 5.91838 13.0433 5.92H13.0425Z" fill="#DBDBDB"/>
</svg>
