<svg width="28" height="28" viewBox="0 0 28 28" fill="none" xmlns="http://www.w3.org/2000/svg">
<path d="M25.2855 21.6456C24.5355 20.9769 23.8789 20.2104 23.3333 19.3667C22.7377 18.202 22.3807 16.9301 22.2833 15.6256V11.7833C22.2885 9.73436 21.5452 7.75404 20.1932 6.21442C18.8412 4.67481 16.9735 3.68189 14.9411 3.42222V2.41889C14.9411 2.1435 14.8317 1.8794 14.637 1.68468C14.4422 1.48995 14.1781 1.38055 13.9027 1.38055C13.6274 1.38055 13.3633 1.48995 13.1685 1.68468C12.9738 1.8794 12.8644 2.1435 12.8644 2.41889V3.43778C10.8502 3.71616 9.00506 4.71509 7.67083 6.24953C6.33659 7.78397 5.60365 9.74994 5.60775 11.7833V15.6256C5.51033 16.9301 5.15335 18.202 4.55775 19.3667C4.02177 20.2085 3.37568 20.9749 2.63664 21.6456C2.55367 21.7184 2.48718 21.8082 2.44158 21.9087C2.39599 22.0093 2.37233 22.1185 2.37219 22.2289V23.2867C2.37219 23.4929 2.45414 23.6908 2.6 23.8366C2.74586 23.9825 2.94369 24.0644 3.14997 24.0644H24.7722C24.9785 24.0644 25.1763 23.9825 25.3222 23.8366C25.468 23.6908 25.55 23.4929 25.55 23.2867V22.2289C25.5498 22.1185 25.5262 22.0093 25.4806 21.9087C25.435 21.8082 25.3685 21.7184 25.2855 21.6456ZM3.98997 22.5089C4.71362 21.8098 5.35077 21.0264 5.88775 20.1756C6.638 18.7689 7.07575 17.2169 7.17108 15.6256V11.7833C7.14023 10.8718 7.29313 9.96339 7.62067 9.11219C7.94821 8.26098 8.44369 7.48439 9.07761 6.82866C9.71152 6.17292 10.4709 5.65146 11.3106 5.29532C12.1502 4.93918 13.0529 4.75565 13.965 4.75565C14.877 4.75565 15.7797 4.93918 16.6194 5.29532C17.459 5.65146 18.2184 6.17292 18.8523 6.82866C19.4862 7.48439 19.9817 8.26098 20.3093 9.11219C20.6368 9.96339 20.7897 10.8718 20.7589 11.7833V15.6256C20.8542 17.2169 21.2919 18.7689 22.0422 20.1756C22.5792 21.0264 23.2163 21.8098 23.94 22.5089H3.98997Z" fill="#DBDBDB"/>
<path d="M14 26.6622C14.4899 26.6509 14.9601 26.4667 15.3273 26.1422C15.6946 25.8177 15.9352 25.3737 16.0066 24.8889H11.9155C11.989 25.3869 12.2409 25.8413 12.6243 26.1675C13.0077 26.4937 13.4966 26.6695 14 26.6622Z" fill="#DBDBDB"/>
</svg>
