<svg width="20" height="20" viewBox="0 0 20 20" fill="none" xmlns="http://www.w3.org/2000/svg">
<path d="M11.5167 18.3333H8.48332C8.29326 18.3334 8.1089 18.2684 7.96082 18.1493C7.81274 18.0302 7.70982 17.864 7.66915 17.6783L7.32998 16.1083C6.87753 15.9101 6.44851 15.6622 6.05082 15.3692L4.51998 15.8567C4.33879 15.9145 4.14328 15.9085 3.96592 15.8398C3.78856 15.7712 3.64003 15.6439 3.54499 15.4792L2.02499 12.8533C1.93094 12.6884 1.89564 12.4965 1.92485 12.309C1.95407 12.1214 2.04608 11.9493 2.18582 11.8208L3.37332 10.7375C3.31932 10.2468 3.31932 9.75158 3.37332 9.26084L2.18582 8.18C2.04588 8.05148 1.95375 7.87923 1.92453 7.69149C1.8953 7.50375 1.93073 7.31165 2.02499 7.14667L3.54165 4.51917C3.63669 4.35443 3.78523 4.22716 3.96259 4.15849C4.13994 4.08983 4.33545 4.08389 4.51665 4.14167L6.04748 4.62917C6.25082 4.47917 6.46249 4.33917 6.68082 4.2125C6.89165 4.09417 7.10832 3.98667 7.32998 3.89084L7.66999 2.32251C7.71046 2.13684 7.81318 1.97058 7.96111 1.8513C8.10904 1.73201 8.29329 1.66687 8.48332 1.66667H11.5167C11.7067 1.66687 11.8909 1.73201 12.0389 1.8513C12.1868 1.97058 12.2895 2.13684 12.33 2.32251L12.6733 3.89167C13.1255 4.08992 13.5543 4.33783 13.9517 4.63084L15.4833 4.14334C15.6644 4.08577 15.8597 4.09181 16.0369 4.16047C16.2141 4.22913 16.3625 4.35628 16.4575 4.52084L17.9742 7.14834C18.1675 7.48751 18.1008 7.91667 17.8133 8.18084L16.6258 9.26417C16.6798 9.75491 16.6798 10.2501 16.6258 10.7408L17.8133 11.8242C18.1008 12.0892 18.1675 12.5175 17.9742 12.8567L16.4575 15.4842C16.3624 15.6489 16.2139 15.7762 16.0366 15.8448C15.8592 15.9135 15.6637 15.9195 15.4825 15.8617L13.9517 15.3742C13.5543 15.667 13.1255 15.9146 12.6733 16.1125L12.33 17.6783C12.2893 17.8639 12.1866 18.0299 12.0386 18.149C11.8907 18.2682 11.7066 18.3332 11.5167 18.3333ZM6.34998 13.5242L7.03332 14.0242C7.18748 14.1375 7.34749 14.2417 7.51415 14.3367C7.67082 14.4275 7.83082 14.5092 7.99665 14.5833L8.77415 14.9242L9.15499 16.6667H10.8467L11.2275 14.9233L12.005 14.5825C12.3442 14.4325 12.6667 14.2467 12.9658 14.0275L13.6492 13.5275L15.3508 14.0692L16.1967 12.6042L14.8775 11.4017L14.9708 10.5583C15.0125 10.1892 15.0125 9.81667 14.9708 9.44834L14.8775 8.60501L16.1975 7.40001L15.3508 5.93417L13.65 6.47584L12.9658 5.97584C12.6665 5.75558 12.3444 5.56812 12.005 5.41667L11.2275 5.07584L10.8467 3.33334H9.15499L8.77165 5.07667L7.99665 5.41667C7.65681 5.56551 7.33455 5.75165 7.03582 5.97167L6.35165 6.47167L4.65165 5.93001L3.80415 7.40001L5.12332 8.60084L5.02998 9.445C4.98832 9.81417 4.98832 10.1867 5.02998 10.555L5.12332 11.3983L3.80415 12.6008L4.64999 14.0658L6.34998 13.5242V13.5242ZM9.99665 13.3333C9.1126 13.3333 8.26475 12.9821 7.63963 12.357C7.01451 11.7319 6.66332 10.8841 6.66332 10C6.66332 9.11595 7.01451 8.2681 7.63963 7.64298C8.26475 7.01786 9.1126 6.66667 9.99665 6.66667C10.8807 6.66667 11.7286 7.01786 12.3537 7.64298C12.9788 8.2681 13.33 9.11595 13.33 10C13.33 10.8841 12.9788 11.7319 12.3537 12.357C11.7286 12.9821 10.8807 13.3333 9.99665 13.3333ZM9.99665 8.33334C9.67028 8.33367 9.35119 8.42981 9.07897 8.60985C8.80675 8.78988 8.59337 9.04588 8.46532 9.34608C8.33727 9.64627 8.30017 9.97746 8.35863 10.2986C8.41709 10.6196 8.56854 10.9165 8.79419 11.1523C9.01983 11.3881 9.30974 11.5525 9.62795 11.625C9.94616 11.6975 10.2787 11.675 10.5842 11.5603C10.8897 11.4456 11.1549 11.2437 11.3467 10.9796C11.5385 10.7156 11.6486 10.401 11.6633 10.075V10.4083V10C11.6633 9.55798 11.4877 9.13405 11.1752 8.82149C10.8626 8.50893 10.4387 8.33334 9.99665 8.33334Z" fill="#DBDBDB"/>
</svg>
