<svg width="28" height="28" viewBox="0 0 28 28" fill="none" xmlns="http://www.w3.org/2000/svg">
<path d="M23.4054 21.8137C24.662 20.3018 25.536 18.5095 25.9534 16.5884C26.3708 14.6673 26.3194 12.6739 25.8035 10.7769C25.2876 8.87982 24.3223 7.13494 22.9894 5.68983C21.6566 4.24473 19.9952 3.1419 18.146 2.47465C16.2967 1.8074 14.314 1.59536 12.3655 1.85646C10.4169 2.11756 8.55997 2.84412 6.95163 3.97468C5.34329 5.10524 4.0309 6.60654 3.12549 8.35158C2.22008 10.0966 1.74828 12.0341 1.75 14C1.75067 16.8579 2.75778 19.6243 4.59463 21.8137L4.57713 21.8286C4.63838 21.9021 4.70838 21.9651 4.77138 22.0377C4.85013 22.1279 4.935 22.2127 5.01638 22.3002C5.26138 22.5662 5.51338 22.8217 5.77763 23.0615C5.85813 23.135 5.94125 23.2032 6.02263 23.2732C6.30263 23.5147 6.5905 23.744 6.88888 23.9575C6.92738 23.9837 6.96238 24.0179 7.00088 24.045V24.0345C9.05022 25.4766 11.495 26.2506 14.0009 26.2506C16.5068 26.2506 18.9515 25.4766 21.0009 24.0345V24.045C21.0394 24.0179 21.0735 23.9837 21.1129 23.9575C21.4104 23.7431 21.6991 23.5147 21.9791 23.2732C22.0605 23.2032 22.1436 23.1341 22.2241 23.0615C22.4884 22.8209 22.7404 22.5662 22.9854 22.3002C23.0668 22.2127 23.1508 22.1279 23.2304 22.0377C23.2925 21.9651 23.3634 21.9021 23.4246 21.8277L23.4054 21.8137ZM14 6.99999C14.7788 6.99999 15.54 7.23092 16.1876 7.66358C16.8351 8.09624 17.3398 8.71119 17.6378 9.43067C17.9358 10.1502 18.0138 10.9419 17.8618 11.7057C17.7099 12.4695 17.3349 13.1711 16.7842 13.7217C16.2336 14.2724 15.532 14.6474 14.7682 14.7993C14.0044 14.9513 13.2127 14.8733 12.4932 14.5753C11.7737 14.2772 11.1588 13.7726 10.7261 13.125C10.2934 12.4775 10.0625 11.7163 10.0625 10.9375C10.0625 9.8932 10.4773 8.89168 11.2158 8.15326C11.9542 7.41483 12.9557 6.99999 14 6.99999ZM7.00613 21.8137C7.02131 20.6648 7.48821 19.5681 8.30582 18.7608C9.12343 17.9535 10.226 17.5006 11.375 17.5H16.625C17.774 17.5006 18.8766 17.9535 19.6942 18.7608C20.5118 19.5681 20.9787 20.6648 20.9939 21.8137C19.0749 23.543 16.5832 24.5001 14 24.5001C11.4168 24.5001 8.92514 23.543 7.00613 21.8137Z" fill="#DBDBDB"/>
</svg>
