<svg width="25" height="20" viewBox="0 0 25 20" fill="none" xmlns="http://www.w3.org/2000/svg">
<path fill-rule="evenodd" clip-rule="evenodd" d="M15 4.5C15 5.88125 13.8813 7 12.5 7C11.1187 7 10 5.88125 10 4.5C10 3.11875 11.1187 2 12.5 2C13.8813 2 15 3.11875 15 4.5ZM13.75 4.5C13.75 4.83152 13.6183 5.14946 13.3839 5.38388C13.1495 5.6183 12.8315 5.75 12.5 5.75C12.1685 5.75 11.8505 5.6183 11.6161 5.38388C11.3817 5.14946 11.25 4.83152 11.25 4.5C11.25 4.16848 11.3817 3.85054 11.6161 3.61612C11.8505 3.3817 12.1685 3.25 12.5 3.25C12.8315 3.25 13.1495 3.3817 13.3839 3.61612C13.6183 3.85054 13.75 4.16848 13.75 4.5ZM8.75 5.4375C8.75 6.18342 8.45368 6.89879 7.92624 7.42624C7.39879 7.95368 6.68342 8.25 5.9375 8.25C5.56813 8.25008 5.20237 8.17739 4.86111 8.03608C4.51984 7.89477 4.20976 7.6876 3.94858 7.42642C3.6874 7.16524 3.48023 6.85516 3.33892 6.51389C3.19761 6.17263 3.12492 5.80687 3.125 5.4375C3.125 3.88375 4.38375 2.625 5.9375 2.625C7.49125 2.625 8.75 3.88375 8.75 5.4375ZM7.5 5.4375C7.5 6.30125 6.80125 7 5.9375 7C5.73229 7.00008 5.52907 6.95972 5.33946 6.88123C5.14985 6.80274 4.97757 6.68765 4.83246 6.54254C4.68735 6.39743 4.57227 6.22515 4.49377 6.03554C4.41528 5.84593 4.37492 5.64271 4.375 5.4375C4.375 4.57375 5.07375 3.875 5.9375 3.875C6.80125 3.875 7.5 4.57375 7.5 5.4375ZM0 12.9088C0 10.6425 4.16375 9.5 6.25 9.5C6.75062 9.5 7.37125 9.56562 8.025 9.6975C8.83313 9.06875 10.4206 8.25 12.5 8.25C14.5794 8.25 16.1669 9.06875 16.975 9.6975C17.6287 9.56562 18.2494 9.5 18.75 9.5C20.8356 9.5 25 10.6419 25 12.9088V17H0V12.9088ZM1.25 12.9088C1.25 12.7613 1.30875 12.5644 1.57 12.3006C1.84313 12.0256 2.275 11.7481 2.84312 11.5C3.9875 11 5.37813 10.75 6.25 10.75C7.12187 10.75 8.51375 11 9.65625 11.5C10.225 11.7481 10.6569 12.0263 10.93 12.3006C11.1913 12.5644 11.25 12.7613 11.25 12.9088V15.75H1.25V12.9088ZM15.3437 10.1531C14.4581 9.72137 13.4853 9.49796 12.5 9.5C11.3281 9.5 10.355 9.80938 9.65625 10.1531C11.1813 10.7138 12.5 11.6331 12.5 12.9094C12.5 11.6331 13.8187 10.7138 15.3437 10.1531ZM14.07 12.3006C13.8087 12.5644 13.75 12.7613 13.75 12.9088V15.75H23.75V12.9088C23.75 12.7613 23.6912 12.5644 23.43 12.3006C23.1569 12.0256 22.725 11.7481 22.1569 11.5C21.0125 11 19.6219 10.75 18.75 10.75C17.8781 10.75 16.4862 11 15.3437 11.5C14.775 11.7481 14.3431 12.0263 14.07 12.3006V12.3006ZM19.0625 8.25C20.6163 8.25 21.875 6.99125 21.875 5.4375C21.875 3.88375 20.6163 2.625 19.0625 2.625C18.6931 2.62492 18.3274 2.69761 17.9861 2.83892C17.6448 2.98023 17.3348 3.1874 17.0736 3.44858C16.8124 3.70976 16.6052 4.01984 16.4639 4.36111C16.3226 4.70237 16.2499 5.06813 16.25 5.4375C16.25 6.18342 16.5463 6.89879 17.0738 7.42624C17.6012 7.95368 18.3166 8.25 19.0625 8.25V8.25ZM19.0625 7C19.9262 7 20.625 6.30125 20.625 5.4375C20.625 4.57375 19.9262 3.875 19.0625 3.875C18.8573 3.87492 18.6541 3.91528 18.4645 3.99377C18.2749 4.07227 18.1026 4.18735 17.9575 4.33246C17.8124 4.47757 17.6973 4.64985 17.6188 4.83946C17.5403 5.02907 17.4999 5.23229 17.5 5.4375C17.5 6.30125 18.1988 7 19.0625 7Z" fill="#DBDBDB"/>
</svg>
